<svg width="119" height="19" viewBox="0 0 119 19" fill="none" xmlns="http://www.w3.org/2000/svg">
<path d="M10.0913 5.56541C10.0231 4.87791 9.73051 4.34382 9.21347 3.96313C8.69642 3.58245 7.99472 3.39211 7.10835 3.39211C6.50608 3.39211 5.99756 3.47734 5.58279 3.64779C5.16801 3.81257 4.84983 4.04268 4.62824 4.33813C4.41233 4.63359 4.30438 4.96882 4.30438 5.34382C4.29301 5.65632 4.35835 5.92904 4.5004 6.162C4.64813 6.39495 4.84983 6.59666 5.10551 6.76711C5.3612 6.93189 5.65665 7.07677 5.99188 7.20177C6.3271 7.32109 6.68506 7.42336 7.06574 7.50859L8.63392 7.88359C9.39529 8.05404 10.0942 8.28132 10.7305 8.56541C11.3669 8.8495 11.918 9.19893 12.3839 9.6137C12.8498 10.0285 13.2106 10.5171 13.4663 11.0796C13.7277 11.6421 13.8612 12.287 13.8669 13.0143C13.8612 14.0825 13.5885 15.0086 13.0487 15.7927C12.5146 16.5711 11.7419 17.1762 10.7305 17.608C9.72483 18.0342 8.51176 18.2472 7.09131 18.2472C5.68222 18.2472 4.45495 18.0313 3.40949 17.5995C2.36972 17.1677 1.55722 16.5285 0.971991 15.6819C0.392445 14.8296 0.0884677 13.7756 0.0600586 12.52H3.63108C3.67085 13.1052 3.83847 13.5938 4.13392 13.9859C4.43506 14.3722 4.83563 14.6648 5.33563 14.8637C5.84131 15.0569 6.41233 15.1535 7.0487 15.1535C7.6737 15.1535 8.21631 15.0626 8.67654 14.8807C9.14245 14.6989 9.50324 14.4461 9.75892 14.1222C10.0146 13.7984 10.1424 13.4262 10.1424 13.0057C10.1424 12.6137 10.026 12.2842 9.79301 12.0171C9.56574 11.7501 9.23051 11.5228 8.78733 11.3353C8.34983 11.1478 7.8129 10.9773 7.17654 10.8239L5.27597 10.3467C3.80438 9.9887 2.64245 9.42904 1.79017 8.66768C0.9379 7.90632 0.514604 6.88075 0.520286 5.59098C0.514604 4.53416 0.795854 3.61086 1.36404 2.82109C1.9379 2.03132 2.72483 1.41484 3.72483 0.971658C4.72483 0.528476 5.8612 0.306885 7.13392 0.306885C8.42938 0.306885 9.56006 0.528476 10.526 0.971658C11.4976 1.41484 12.2532 2.03132 12.793 2.82109C13.3328 3.61086 13.6112 4.52563 13.6282 5.56541H10.0913Z" fill="black"/>
<path d="M37.1889 9.27279C37.1889 11.1762 36.8281 12.7955 36.1065 14.1307C35.3906 15.466 34.4133 16.4859 33.1747 17.1904C31.9417 17.8893 30.5554 18.2387 29.0156 18.2387C27.4645 18.2387 26.0724 17.8864 24.8395 17.1819C23.6065 16.4773 22.6321 15.4575 21.9162 14.1222C21.2003 12.787 20.8423 11.1705 20.8423 9.27279C20.8423 7.36939 21.2003 5.75007 21.9162 4.41484C22.6321 3.07961 23.6065 2.06257 24.8395 1.3637C26.0724 0.659158 27.4645 0.306885 29.0156 0.306885C30.5554 0.306885 31.9417 0.659158 33.1747 1.3637C34.4133 2.06257 35.3906 3.07961 36.1065 4.41484C36.8281 5.75007 37.1889 7.36939 37.1889 9.27279ZM33.4474 9.27279C33.4474 8.03984 33.2628 7.00007 32.8934 6.15348C32.5298 5.30689 32.0156 4.66484 31.3508 4.22734C30.6861 3.78984 29.9076 3.57109 29.0156 3.57109C28.1236 3.57109 27.3451 3.78984 26.6804 4.22734C26.0156 4.66484 25.4986 5.30689 25.1292 6.15348C24.7656 7.00007 24.5838 8.03984 24.5838 9.27279C24.5838 10.5057 24.7656 11.5455 25.1292 12.3921C25.4986 13.2387 26.0156 13.8807 26.6804 14.3182C27.3451 14.7557 28.1236 14.9745 29.0156 14.9745C29.9076 14.9745 30.6861 14.7557 31.3508 14.3182C32.0156 13.8807 32.5298 13.2387 32.8934 12.3921C33.2628 11.5455 33.4474 10.5057 33.4474 9.27279Z" fill="black"/>
<path d="M46.7467 18.0001H42.7922L48.8177 0.545521H53.5734L59.5905 18.0001H55.6359L51.2638 4.53416H51.1274L46.7467 18.0001ZM46.4995 11.1393H55.8405V14.02H46.4995V11.1393Z" fill="black"/>
<path d="M66.4913 18.0001V0.545521H73.3777C74.7015 0.545521 75.8294 0.798362 76.7612 1.30404C77.693 1.80404 78.4032 2.50007 78.8919 3.39211C79.3862 4.27848 79.6334 5.3012 79.6334 6.46029C79.6334 7.61939 79.3834 8.64211 78.8834 9.52848C78.3834 10.4148 77.6589 11.1052 76.7101 11.5995C75.7669 12.0938 74.6248 12.341 73.2839 12.341H68.8947V9.38359H72.6873C73.3976 9.38359 73.9828 9.26143 74.443 9.01711C74.9089 8.76711 75.2555 8.42336 75.4828 7.98586C75.7157 7.54268 75.8322 7.03416 75.8322 6.46029C75.8322 5.88075 75.7157 5.37507 75.4828 4.94325C75.2555 4.50575 74.9089 4.16768 74.443 3.92904C73.9771 3.68473 73.3862 3.56257 72.6703 3.56257H70.1816V18.0001H66.4913Z" fill="black"/>
<path d="M86.8304 18.0001V0.545521H90.5207V14.9575H98.0037V18.0001H86.8304Z" fill="black"/>
<path d="M101.998 0.545521H106.132L110.112 8.06257H110.282L114.262 0.545521H118.396L112.03 11.8296V18.0001H108.365V11.8296L101.998 0.545521Z" fill="black"/>
</svg>
